<?xml version="1.0" encoding="UTF-8" standalone="no"?>
<!-- Created with Inkscape (http://www.inkscape.org/) -->

<svg
   xmlns:dc="http://purl.org/dc/elements/1.1/"
   xmlns:cc="http://creativecommons.org/ns#"
   xmlns:rdf="http://www.w3.org/1999/02/22-rdf-syntax-ns#"
   xmlns:svg="http://www.w3.org/2000/svg"
   xmlns="http://www.w3.org/2000/svg"
   xmlns:sodipodi="http://sodipodi.sourceforge.net/DTD/sodipodi-0.dtd"
   xmlns:inkscape="http://www.inkscape.org/namespaces/inkscape"
   id="svg4410"
   version="1.1"
   inkscape:version="0.91 r13725"
   xml:space="preserve"
   width="614.98749"
   height="671.42249"
   viewBox="0 0 614.98749 671.42249"
   sodipodi:docname="MotherGeo.svg"><metadata
     id="metadata4416"><rdf:RDF><cc:Work
         rdf:about=""><dc:format>image/svg+xml</dc:format><dc:type
           rdf:resource="http://purl.org/dc/dcmitype/StillImage" /><dc:title></dc:title></cc:Work></rdf:RDF></metadata><defs
     id="defs4414" /><sodipodi:namedview
     pagecolor="#ffffff"
     bordercolor="#666666"
     borderopacity="1"
     objecttolerance="10"
     gridtolerance="10"
     guidetolerance="10"
     inkscape:pageopacity="0"
     inkscape:pageshadow="2"
     inkscape:window-width="1565"
     inkscape:window-height="913"
     id="namedview4412"
     showgrid="false"
     inkscape:zoom="0.70298245"
     inkscape:cx="-17.008621"
     inkscape:cy="404.24471"
     inkscape:window-x="0"
     inkscape:window-y="0"
     inkscape:window-maximized="0"
     inkscape:current-layer="g4418"
     fit-margin-top="0"
     fit-margin-left="0"
     fit-margin-right="0"
     fit-margin-bottom="0" /><g
     id="g4418"
     inkscape:groupmode="layer"
     inkscape:label="ink_ext_XXXXXX"
     transform="matrix(1.25,0,0,-1.25,0,671.4225)"><g
       id="g4420"
       transform="scale(0.1,0.1)"
       inkscape:export-filename="C:\Users\pblair\Downloads\1313680-1313145-3898764a47b5074da_FinalFormats\PNG\24\MotherGeo.png"
       inkscape:export-xdpi="3.5122666"
       inkscape:export-ydpi="3.5122666"><path
         d="m 0,0 4919.9,0 0,5371.38 L 0,5371.38 0,0 Z"
         style="fill:#ffffff;fill-opacity:1;fill-rule:nonzero;stroke:none"
         id="path4422"
         inkscape:connector-curvature="0" /><path
         d="m 3729.8,1913.97 c -1.36,-1.5 -2.74,-2.99 -4.19,-4.4 -0.33,-0.33 -0.99,-0.34 -2.24,-0.72 -3.87,12.03 -7.74,24.07 -11.6,36.1 -63,196.12 -146.72,382.83 -253.69,558.98 -3.59,5.91 -3.73,9.33 1.21,14.72 116.14,126.64 215.32,265.21 296.71,416.26 136.75,-137.23 247.9,-299.95 325.85,-480.38 -87.49,-199.25 -205.26,-379.18 -352.05,-540.56 z m -145.98,-145.76 c -134.74,-121.57 -281.81,-225.8 -441,-312.76 -49.72,-27.16 -100.82,-51.8 -151.3,-77.57 -1.27,-0.65 -2.65,-1.09 -5.12,-2.08 -91.74,200.72 -183.19,400.8 -275.04,601.76 228.84,105.7 436.59,242.28 622.5,414.29 20.39,-37.49 40.72,-73.5 59.79,-110.15 82.82,-159.15 146.64,-325.73 194.26,-498.63 1.74,-6.32 1.06,-10.22 -4.09,-14.86 z M 2778,1289.19 c -80.75,-29.36 -162.64,-55.11 -245.8,-76.76 -95.8,-24.94 -192.45,-46.02 -290.58,-59.28 -68.24,-9.23 -136.82,-15.92 -205.22,-23.95 -6.62,-0.77 -10.23,0.86 -13.57,7.11 -93.38,174.44 -161.36,358.35 -206.17,550.95 -4.58,19.71 -8.8,39.52 -13.12,59.3 -0.6,2.76 -0.81,5.61 -1.33,9.36 260.74,12.18 512.36,65.35 756.76,157.74 91.87,-200.99 183.55,-401.57 275.64,-603.03 -19.43,-7.37 -37.93,-14.65 -56.61,-21.44 z m -1004.67,638.57 c -12.74,104.17 -19.2,208.71 -18.34,313.66 0.61,75.62 4.5,151.07 12.91,226.24 0.15,1.4 0.43,2.77 0.78,4.92 169.22,1.65 331.89,36.07 490.48,97.02 77,-168.46 153.76,-336.38 231.02,-505.4 -22.97,-8.2 -45.39,-16.54 -68.03,-24.22 -103.39,-35.07 -208.51,-63.99 -316.09,-82.55 -68.66,-11.84 -137.9,-20.53 -207.09,-28.83 -38.46,-4.62 -77.37,-5.44 -116.06,-8.26 -6.07,-0.44 -8.77,0.81 -9.58,7.42 z m 1070.78,1031.92 c 155.18,-121.93 286.1,-265.14 398.53,-426.73 -88.01,-84.07 -182.31,-159.51 -282.86,-227.2 -100.53,-67.68 -205.92,-126.65 -317.16,-177.78 -77.59,169.75 -155.07,339.25 -232.89,509.51 161.98,84.06 306.29,191.37 434.38,322.2 z m -730.36,325.37 c 214.02,-36.58 410.69,-112.81 593.6,-228.71 -109.25,-107.84 -230.5,-196.94 -366.42,-268.31 -75.64,165.49 -151.04,330.44 -227.18,497.02 z m -137.47,-96.55 c 71.65,-156.74 142.58,-311.92 214.02,-468.21 -128.86,-48.76 -260.28,-77.6 -397.81,-81.91 35.75,192.01 95.32,374.69 183.79,550.12 z m 1653,-139.72 c -71.89,-140.73 -160.68,-270.19 -265.1,-389.21 -1.33,-1.52 -2.65,-3.05 -4.78,-5.5 -58.11,80.84 -120.34,157.26 -188,229.2 -67.58,71.86 -139.88,138.57 -217.93,200.51 60.01,75.48 112.42,155.03 157.45,240 191.09,-58.38 366.47,-152.68 518.36,-275 z m -972.37,342.56 c 98.37,0 194.56,-9.26 287.85,-26.76 -36.87,-64.72 -78.52,-125.79 -125.39,-183.94 -123.37,80.9 -253.79,145.28 -391.5,193.84 74.75,11.06 151.21,16.86 229.04,16.86 z M 1626.09,2646.28 c -86.94,11.03 -170.3,33.1 -252,66.48 103.18,151.32 232.42,283.44 381.28,389.9 -58.84,-147.25 -101.58,-299.23 -129.28,-456.38 z m -72.1,-722.52 c -55.82,5.81 -111.75,11.01 -167.32,18.71 -88.64,12.26 -175.67,32.44 -261.63,57.31 -8.13,2.36 -7.44,6.98 -6.79,12.9 7.48,68.21 18.53,135.8 34.06,202.68 5.56,23.96 11.8,47.67 18.41,71.26 29.71,98.93 69,193.7 116.84,283.23 101,-43.73 205.86,-72.86 315.69,-87.28 -19.53,-187.28 -17.62,-373.83 4.76,-561.73 -18.88,0.97 -36.54,1.1 -54.02,2.92 z m 85.7,-1469.85 c 102.9,-24.879 210.67,-37.57 322.48,-37.558 186.67,0 383.79,34.546 588.92,102.648 -12.48,9.141 -24.97,18.27 -37.16,27.719 -12.33,-1.078 -24.66,-2.27 -37.02,-3.078 -35.16,-2.332 -69.54,-3.5 -102.2,-3.5 -38.24,0 -75.08,1.769 -110.95,4.949 17.74,-17.039 35.73,-33.828 54.18,-50.199 2.56,-2.27 5.07,-4.602 7.6,-6.911 l -0.84,-2.019 c -10.34,0 -20.68,-0.109 -31.02,0.008 -173.23,1.953 -343.21,24.941 -509.83,70.922 -170.6,116.339 -316.76,265.8 -429.29,439.148 10.46,-1.738 20.62,-3.43 30.65,-4.687 65.46,-8.204 130.83,-17.282 196.45,-23.973 6.72,-0.68 13.45,-1.231 20.17,-1.84 -2.82,6.039 -5.75,11.973 -8.43,18.121 -20.45,46.92 -35.89,98.08 -46.38,152.61 -65.49,6.58 -130.63,16.01 -195.34,28.31 -32.96,6.26 -65.73,13.45 -98.65,19.93 -1.28,0.25 -2.35,0.63 -3.41,1.04 -26,55.84 -48.77,113.48 -68.08,172.69 -21.17,69.43 -37.91,140.14 -49.86,212.27 -13.46,81.28 -20.35,163.12 -22.03,245.45 -0.11,5.16 -0.01,10.33 -0.01,16.6 10.32,-2.73 19.74,-5.24 29.17,-7.71 104.57,-27.4 210.51,-47.58 318.13,-57.87 56.47,-5.39 113.16,-8.34 169.78,-11.98 6.22,-0.4 7.46,-2.97 8.45,-8.11 19.24,-100.08 44.28,-198.68 75.57,-295.68 35.58,-110.28 78.68,-217.51 129.92,-321.46 1.11,-2.25 1.97,-4.64 3.1,-7.32 -28.79,0 -56.92,-0.93 -84.94,0.12 10.25,-15.73 21.27,-30.78 33.22,-45.12 69.9,-83.809 158.97,-141.789 264.73,-172.309 44.45,-12.832 89.45,-22.601 134.44,-29.742 -21.3,28.461 -41.8,57.543 -62.67,86.332 -1.85,2.551 -3.4,5.309 -6.03,9.449 269.11,27.86 528.91,89.83 780.86,189.02 23.98,-52.47 47.9,-104.79 71.83,-157.15 49.53,19.92 99.68,42.43 150.69,67.58 -23.56,51.54 -47.09,103.02 -70.73,154.74 207.98,97.03 400.64,217.41 577.37,366.19 4.03,-22.47 8.48,-42.76 11.2,-63.28 5.03,-38.04 10.37,-76.05 15.33,-114.11 6.82,5.57 13.69,11.06 20.44,16.68 44.09,36.68 86.72,74.18 127.88,112.41 -9.15,56.06 -19.82,111.93 -32.43,167.58 -1.4,6.17 0.31,9.57 4.3,13.54 110.2,109.7 208.88,228.93 292.58,360.03 30.59,47.91 58.4,97.6 86.83,146.88 19.78,-76.05 33.95,-154.37 42,-234.49 50.65,74.31 94.87,148.43 133.02,223.15 -173.06,766.43 -858.04,1338.83 -1676.77,1338.83 -949.41,0 -1719.058,-769.65 -1719.058,-1719.05 0,-41.83 1.574,-83.28 4.511,-124.35 C 979.359,1197.87 1245.4,743.82 1639.69,453.91"
         style="fill:#3fb440;fill-opacity:1;fill-rule:nonzero;stroke:none"
         id="path4424"
         inkscape:connector-curvature="0" /><path
         d="m 3204.99,500.211 c 14.51,-31.731 29,-63.41 43.56,-95.242 -101.85,-42.039 -209.11,-73.61 -320.5,-93.239 -44.6,17.29 -88.49,36.372 -131.56,57.469 -0.99,0.481 -1.83,1.231 -4.37,2.973 142.23,30.457 278.99,72.957 412.87,128.039 z m 448.19,245.039 c -3.5,-20.68 -6.09,-39.219 -9.83,-57.52 -3.75,-18.39 -7.66,-36.742 -11.58,-55.089 -72.89,-58.95 -151.17,-111.5 -234.09,-156.629 -14.08,30.808 -28.12,61.547 -42.23,92.437 103.39,51.653 201.87,109.813 297.73,176.801 z m 191.53,150.832 c 45.5,39.859 88.91,81.746 130.62,125.308 -43.5,-69.921 -92.32,-136.191 -146.04,-198.101 1.93,17.609 3.95,35.211 5.66,52.852 0.79,8.199 3.24,14.23 9.76,19.941 z m 306.7,518.898 c -77.55,-79.92 -162.05,-157.75 -252.27,-232.67 -15.96,-17.66 -32.02,-35.23 -47.83,-53.02 -1.9,-2.13 -3.72,-4.34 -7.03,-8.22 -0.45,4.79 -0.84,7.18 -0.87,9.58 -0.02,2.09 -0.12,4.17 -0.15,6.25 -30.95,-24.64 -62.41,-48.99 -94.57,-72.9 -23.57,-17.52 -46.92,-34.27 -70.17,-50.67 -0.2,-6.31 -0.23,-12.61 -0.48,-18.92 -0.74,-18.89 -7.38,-30.019 -21.68,-41.262 -113.03,-88.867 -233.78,-165.449 -361.91,-230.507 -2.29,-1.161 -4.69,-2.09 -7.9,-3.512 -1.41,3.09 -2.82,6.172 -4.23,9.262 C 3010.48,530.09 2774.09,398.5 2564.12,311.43 c 12.81,-7.41 25.59,-14.871 38.37,-22.301 -27.33,0.941 -54.49,2.59 -81.45,4.93 C 2396.8,245.27 2281.87,212 2174.31,189.43 c 153.12,-44.7 315.04,-68.782 482.6,-68.782 888.56,0 1619.62,674.184 1709.67,1538.922 -64.82,-81.98 -136.37,-163.37 -215.17,-244.59"
         style="fill:#3fb440;fill-opacity:1;fill-rule:nonzero;stroke:none"
         id="path4426"
         inkscape:connector-curvature="0" /><path
         d="m 4736.83,2766.15 c -2.45,121.88 -28.29,236.78 -87.91,343.62 -39.8,71.31 -93.1,132.48 -157.46,180.44 -69.43,51.73 -148.12,89.76 -232.86,112.1 -39.54,10.42 -79.68,18.58 -119.55,27.77 -0.51,-2.48 -1.03,-4.95 -1.54,-7.42 19.47,-7.69 39.18,-14.83 58.39,-23.14 136.84,-59.18 242.51,-152.9 308.61,-287.2 62.54,-127.04 75.61,-263.57 63.79,-402.49 -10.24,-120.49 -41.55,-236.71 -85.11,-349.35 -71.45,-184.78 -171.7,-353.35 -291.04,-510.97 -134.93,-178.22 -290.58,-336.5 -462.21,-479.3 -115.39,-96.02 -237.65,-182.65 -366.39,-259.63 -155.11,-92.74 -316.9,-172.568 -489.19,-228.06 -88.26,-28.43 -178.71,-51.122 -269.43,-70.579 -116.6,-25.011 -235.63,-35.031 -354.43,-23.781 -72.59,6.871 -145.52,20.981 -215.59,41.199 -120.17,34.68 -222.52,100.551 -303.43,197.581 -53.57,64.24 -90.12,137.36 -114.44,219.56 -1.75,-4.6 -3.11,-6.63 -3.2,-8.71 -0.23,-5.46 -0.29,-10.97 0.25,-16.39 7.19,-71.25 23.05,-140.77 51.59,-206.24 74.49,-170.871 204.71,-281.558 378.67,-343.469 138.68,-49.351 281.95,-58.961 427.38,-49.371 154.64,10.192 305.58,41.739 450.93,93.571 116.6,41.578 231.39,89.839 343.02,143.39 154.25,73.981 298.59,165.879 435.98,267.999 139.88,103.98 271.67,217.41 393.16,342.61 227.57,234.55 418.52,494.03 540.95,799.48 63.8,159.19 104.56,323.3 101.06,496.78"
         style="fill:#80c82c;fill-opacity:1;fill-rule:nonzero;stroke:none"
         id="path4428"
         inkscape:connector-curvature="0" /><path
         d="m 1844.55,4270.05 c 51.78,403.42 401.63,722.28 771.73,730.94 357.35,8.36 627.31,-276.5 613.34,-652.66 -8.16,-219.66 -110.94,-429.77 -268.19,-579.66 -260.42,-4.94 -538.11,-55.27 -816.16,-149.11 -212.48,116.15 -337.81,361.46 -300.72,650.49 z M 2934.04,592.301 C 2061.23,161.5 1356.23,304.879 912.863,812.801 c -99.5,113.988 -171.718,237.939 -216.191,368.439 -12.766,37.45 -23.367,75.42 -31.524,113.88 -70.597,332.96 32.485,700.71 321.004,1052.29 192.228,739.41 864.248,1285.3 1663.818,1285.3 265.93,0 517.75,-60.42 742.52,-168.23 290.37,-21.01 543.31,-119.56 726.23,-311.86 114.63,-120.5 185.75,-266.03 217.87,-426.75 -9.74,228.83 -80.66,436.94 -222.08,604.44 -7.3,8.64 -14.8,17.09 -22.36,25.48 -40.37,42.27 0,0 -40.37,42.27 -233.92,232.25 -573.73,353.37 -960.15,369.15 165.11,181.78 270.68,420.01 279.89,667.88 17.45,469.96 -319.83,825.85 -766.3,815.41 -462.38,-10.82 -899.47,-409.19 -964.16,-913.21 -43.43,-338.4 91.38,-628.79 326.95,-783.42 C 1728.7,3457 1491.79,3328 1268.13,3167.82 523.68,2634.66 124.754,1896.29 189.727,1295.12 198.535,1213.64 215.914,1134.69 242.035,1059.1 276.934,958.109 327.492,863.109 394.617,776.199 870.563,160.012 1929.86,-0.550781 2934.04,592.301"
         style="fill:#80c82c;fill-opacity:1;fill-rule:nonzero;stroke:none"
         id="path4430"
         inkscape:connector-curvature="0"
         sodipodi:nodetypes="cssccccscccscccccccccscscscc" /></g></g></svg>